<svg width="183" height="48" viewBox="0 0 183 48" fill="none" xmlns="http://www.w3.org/2000/svg">
<path d="M63.4746 32.8125V17.2219C63.4746 16.7672 63.7378 16.4921 64.2045 16.4921H77.1627C77.6174 16.4921 77.8926 16.7553 77.8926 17.2219V19.8781C77.8926 20.3328 77.6293 20.6081 77.1627 20.6081H67.7461V23.1207H73.4655C73.9201 23.1207 74.1954 23.3839 74.1954 23.8506V26.124C74.1954 26.5787 73.9321 26.8538 73.4655 26.8538H67.7461V29.4622H77.1627C77.6174 29.4622 77.8926 29.7254 77.8926 30.1921V32.8484C77.8926 33.3031 77.6293 33.5782 77.1627 33.5782H64.2045C63.7378 33.5423 63.4746 33.2791 63.4746 32.8125Z" fill="black"/>
<path d="M96.2352 32.98L95.3618 30.8741H87.0819L86.2084 32.98C86.0649 33.3389 85.7777 33.5304 85.3589 33.5304H82.1283C81.5779 33.5304 81.3506 33.1954 81.5779 32.6809L88.6972 17.0424C88.8647 16.6595 89.1279 16.4921 89.5467 16.4921H92.8969C93.3038 16.4921 93.567 16.6595 93.7465 17.0424L100.866 32.6809C101.081 33.1834 100.866 33.5304 100.315 33.5304H97.0847C96.666 33.5424 96.3788 33.3509 96.2352 32.98ZM93.9379 27.4043L91.2338 20.8832L88.5296 27.4043H93.9379Z" fill="black"/>
<path d="M118.395 29.1751L120.835 32.6809C121.17 33.1834 120.955 33.5544 120.381 33.5544H117.126C116.743 33.5544 116.456 33.4108 116.253 33.0758L114.123 29.6776H109.493V32.8365C109.493 33.2911 109.229 33.5663 108.763 33.5663H105.915C105.46 33.5663 105.185 33.3031 105.185 32.8365V17.2459C105.185 16.7912 105.448 16.516 105.915 16.516H114.673C119.507 16.516 121.577 18.7894 121.577 22.9174V23.3721C121.577 26.124 120.668 28.2538 118.395 29.1751ZM109.493 25.5976H114.326C116.133 25.5976 117.27 25.3583 117.27 23.3003V22.9174C117.27 20.8594 116.205 20.5961 114.326 20.5961H109.493V25.5976Z" fill="black"/>
<path d="M130.707 32.8125V20.62H126.1C125.645 20.62 125.37 20.3568 125.37 19.8901V17.21C125.37 16.7553 125.633 16.4801 126.1 16.4801H139.645C140.099 16.4801 140.374 16.7433 140.374 17.21V19.8901C140.374 20.3448 140.111 20.62 139.645 20.62H135.038V32.8125C135.038 33.2671 134.775 33.5424 134.308 33.5424H131.436C130.97 33.5424 130.707 33.2791 130.707 32.8125Z" fill="black"/>
<path d="M144.706 32.8125V17.2219C144.706 16.7672 144.969 16.4921 145.436 16.4921H148.283C148.738 16.4921 149.013 16.7553 149.013 17.2219V23.2284H156.491V17.2219C156.491 16.7672 156.755 16.4921 157.221 16.4921H160.069C160.524 16.4921 160.799 16.7553 160.799 17.2219V32.8125C160.799 33.2671 160.536 33.5424 160.069 33.5424H157.221C156.767 33.5424 156.491 33.2791 156.491 32.8125V26.9496H149.013V32.8125C149.013 33.2671 148.75 33.5424 148.283 33.5424H145.436C144.969 33.5424 144.706 33.2791 144.706 32.8125Z" fill="black"/>
<path d="M171.675 32.8125V28.8042L164.771 17.3655C164.484 16.863 164.676 16.4921 165.25 16.4921H168.552C168.935 16.4921 169.222 16.6356 169.426 16.9946L173.817 24.7719L178.256 16.9946C178.448 16.6356 178.735 16.4921 179.129 16.4921H182.384C182.958 16.4921 183.162 16.851 182.863 17.3655L175.959 28.8042V32.8125C175.959 33.2671 175.696 33.5424 175.229 33.5424H172.381C171.938 33.5424 171.675 33.2791 171.675 32.8125Z" fill="black"/>
<path d="M6.53271 7.36268C7.51386 6.1901 8.71038 5.25683 9.94279 4.38338C19.8978 -2.62819 33.7534 -0.821453 41.5786 8.49939C42.5478 9.64804 42.8828 10.9522 42.5597 12.4119C42.3085 13.5367 41.5308 14.111 40.4419 14.3144C38.7309 14.6255 37.0558 14.3383 35.3807 14.0033C33.2269 13.5726 19.5987 9.58821 16.7629 8.8703C14.3819 8.26008 11.9649 7.82932 9.524 7.57805C8.78216 7.50626 8.02839 7.56605 7.27458 7.54212C7.02332 7.53015 6.74809 7.57806 6.53271 7.36268Z" fill="black"/>
<path d="M35.7156 43.976C31.5996 46.4169 27.1605 47.6374 22.3745 47.3741C15.0997 46.9913 9.21279 43.8803 4.66604 38.1968C4.4387 37.9097 4.42675 37.6943 4.64212 37.3952C5.52754 36.103 6.78387 35.744 8.25558 35.8756C9.95463 36.0311 11.534 36.6175 13.0895 37.2396C14.2023 37.6824 25.2341 42.1932 28.1057 42.9231C30.3312 43.4854 32.5927 43.7726 34.902 43.7008C35.1771 43.6889 35.56 43.5453 35.7156 43.976Z" fill="black"/>
<path d="M0.310694 18.9449C0.274798 18.8971 0.202987 18.8492 0.214952 18.8133C0.418359 18.0954 0.66965 17.3894 0.837162 16.6715C1.29184 14.6973 2.65585 13.6922 4.48651 13.1897C6.40093 12.6632 8.33931 12.7709 10.2657 13.0222C14.6928 13.6085 29.0629 17.9398 30.2833 18.2629C32.5926 18.8731 34.9019 19.4953 37.2829 19.6868C39.5563 19.8662 41.8177 19.7824 43.8877 18.6099C44.4979 18.2748 45.0244 17.8321 45.5628 17.4253C45.7303 17.2937 45.9218 17.0305 46.1611 17.3535C46.6038 18.8851 46.8909 20.4286 46.5798 22.0319C45.9816 25.1189 44.139 26.6983 40.9921 26.8299C38.5752 26.9256 36.242 26.4231 33.9207 25.8129C29.3979 24.6044 18.4379 20.7875 17.373 20.4406C14.956 19.6628 12.5271 18.9569 10.0264 18.5142C7.41798 18.0476 4.79762 17.904 2.17725 18.5142C1.56703 18.6338 0.980741 18.9928 0.310694 18.9449Z" fill="black"/>
<path d="M45.7663 31.3767C45.6705 31.7716 45.4671 32.1305 45.2278 32.4536C41.8297 37.0721 37.3308 39.1062 31.5876 38.2088C28.0339 37.6584 13.8672 31.7118 11.5101 31.0776C9.18883 30.4674 6.85564 30.1802 4.52244 31.0417C3.72077 31.3408 2.96697 31.7117 2.28496 32.2262C2.04566 32.4057 1.83027 32.645 1.48328 32.5971C0.753408 30.8981 0.274838 29.1153 0.0235704 27.2846C-0.096081 26.4351 0.250876 25.7411 0.813237 25.1429C1.8901 23.9942 3.27806 23.5396 4.78567 23.4319C7.35817 23.2404 9.823 23.7788 12.2759 24.4369C16.9542 25.7052 30.1757 30.24 30.4509 30.3238C33.0593 31.0896 35.6796 31.7716 38.3957 32.0348C40.6212 32.2502 42.7989 32.1305 44.9407 31.4246C45.2278 31.3528 45.4911 31.1853 45.7663 31.3767Z" fill="black"/>
</svg>
